{"title":"Three Days of The Condor 1975 BluRay 1080p ac3 x264-LoNeWoLf","uid":5965288,"size":8569327554,"categoryP":"video","categoryS":"hd___movies","magnet":"?xt=urn:btih:18fb4d8e909ea30f51778a1e20962d1d60967479&amp;dn=Three+Days+of+The+Condor+1975+BluRay+1080p+ac3+x264-LoNeWoLf&amp;tr=udp%3A%2F%2Ftracker.openbittorrent.com%3A80&amp;tr=udp%3A%2F%2Fopen.demonii.com%3A1337&amp;tr=udp%3A%2F%2Ftracker.coppersurfer.tk%3A6969&amp;tr=udp%3A%2F%2Fexodus.desync.com%3A6969","seeders":2,"leechers":1,"uploader":"bobnjeff","files":1,"time":1290095122,"description":"Three Days of The Condor 1975 BluRay 1080p ac3 x264-LoNeWoLf\n\nEncoded by Tequila-Bob a.k.a. bobnjeff a.k.a.LoNeWoLf\n\nSource - NTSC BluRay Disc.\n &lt;a href=&quot;\nhttp://www.imdb.com/title/tt0073802/&quot; rel=&quot;nofollow&quot; target=&quot;_NEW&quot;&gt;\nhttp://www.imdb.com/title/tt0073802/&lt;/a&gt;\n\nGenres:Drama | Mystery | Romance | Thriller\n\nRated R-Violence, Some Language and a Brief Sex Scene\n\nA bookish CIA researcher finds all his co-workers dead, and must outwit those responsible until he figures out who he can really trust. \n\n\nDirector: Sydney Pollack\nWriters: James Grady (novel), Lorenzo Semple Jr. (screenplay), and 1 more credit Ã‚Â» \nStars:Robert Redford, Faye Dunaway and Cliff Robertson \nRelease Date:14 November 1975 \n &lt;a href=&quot;\nhttp://photobucket.com/TheeDaysOfTheCondor_TequilaBob&quot; rel=&quot;nofollow&quot; target=&quot;_NEW&quot;&gt;\nhttp://photobucket.com/TheeDaysOfTheCondor_TequilaBob&lt;/a&gt;\n\nCast\nCast overview, first billed only: \n  Robert Redford  ...  Joseph Turner / The Condor  \n  Faye Dunaway  ...  Kathy Hale  \n  Cliff Robertson  ...  J. Higgins  \n  Max von Sydow  ...  G. Joubert (as Max Von Sydow)  \n  John Houseman  ...  Mr. Wabash  \n  Addison Powell  ...  Leonard Atwood  \n  Walter McGinn  ...  Sam Barber  \n  Tina Chen  ...  Janice Chon  \n  Michael Kane  ...  S.W. Wicks  \n  Don McHenry  ...  Dr. Ferdinand Lappe  \n  Michael B. Miller  ...  Fowler (as Michael Miller)  \n  Jess Osuna  ...  The Major  \n  Dino Narizzano  ...  Harold  \n  Helen Stenborg  ...  Mrs. Edwina Russell (as Helen Stenbure)  \n  Patrick Gorman  ...  Martin   \n\n\nFormat : Matroska \nFile size : 7.98 GiB \nDuration : 1h 57mn \nOverall bit rate : 9 734 Kbps \nEncoded date : UTC 2010-10-18 23:04:28 \nWriting application : mkvmerge v4.3.0  \nWriting library : libebml v1.0.0 + libmatroska v1.0.0 \n\nVideo \nID : 1 \nFormat : AVC \nFormat/Info : Advanced Video Codec \nFormat profile : &lt;a class=&quot;__cf_email__&quot; href=&quot;/cdn-cgi/l/email-protection&quot; data-cfemail=&quot;460e2f212e060a736876&quot;&gt;[email&amp;#160;protected]&lt;/a&gt;&lt;script cf-hash='f9e31' type=&quot;text/javascript&quot;&gt;\n/* &lt;![CDATA[ */!function(){try{var t=&quot;currentScript&quot;in document?document.currentScript:function(){for(var t=document.getElementsByTagName(&quot;script&quot;),e=t.length;e--;)if(t[e].getAttribute(&quot;cf-hash&quot;))return t[e]}();if(t&amp;&amp;t.previousSibling){var e,r,n,i,c=t.previousSibling,a=c.getAttribute(&quot;data-cfemail&quot;);if(a){for(e=&quot;&quot;,r=parseInt(a.substr(0,2),16),n=2;a.length-n;n+=2)i=parseInt(a.substr(n,2),16)^r,e+=String.fromCharCode(i);e=document.createTextNode(e),c.parentNode.replaceChild(e,c)}}}catch(u){}}();/* ]]&gt; */&lt;/script&gt; \nFormat settings, CABAC : Yes \nFormat settings, ReFrames : 9 frames \nMuxing mode : Container profile=&lt;a class=&quot;__cf_email__&quot; href=&quot;/cdn-cgi/l/email-protection&quot; data-cfemail=&quot;c89da6a3a6a7bfa688fde6f8&quot;&gt;[email&amp;#160;protected]&lt;/a&gt;&lt;script cf-hash='f9e31' type=&quot;text/javascript&quot;&gt;\n/* &lt;![CDATA[ */!function(){try{var t=&quot;currentScript&quot;in document?document.currentScript:function(){for(var t=document.getElementsByTagName(&quot;script&quot;),e=t.length;e--;)if(t[e].getAttribute(&quot;cf-hash&quot;))return t[e]}();if(t&amp;&amp;t.previousSibling){var e,r,n,i,c=t.previousSibling,a=c.getAttribute(&quot;data-cfemail&quot;);if(a){for(e=&quot;&quot;,r=parseInt(a.substr(0,2),16),n=2;a.length-n;n+=2)i=parseInt(a.substr(n,2),16)^r,e+=String.fromCharCode(i);e=document.createTextNode(e),c.parentNode.replaceChild(e,c)}}}catch(u){}}();/* ]]&gt; */&lt;/script&gt; \nCodec ID : V_MPEG4/ISO/AVC \nDuration : 1h 57mn \nBit rate : 9 057 Kbps \nWidth : 1 920 pixels \nHeight : 816 pixels \nDisplay aspect ratio : 2.35:1 \nFrame rate : 23.976 fps \nColor space : YUV \nChroma subsampling : 4:2:0 \nBit depth : 8 bits \nScan type : Progressive \nBits/(Pixel*Frame) : 0.241 \nStream size : 7.30 GiB (91%) \nLanguage : English \n\nAudio \nID : 2 \nFormat : AC-3 \nFormat/Info : Audio Coding 3 \nMode extension : CM (complete main) \nMuxing mode : Header stripping \nCodec ID : A_AC3 \nDuration : 1h 57mn \nBit rate mode : Constant \nBit rate : 640 Kbps \nChannel(s) : 6 channels \nChannel positions : Front: L C R, Side: L R, LFE \nSampling rate : 48.0 KHz \nBit depth : 16 bits \nStream size : 537 MiB (7%) \nTitle : 3/2+1 \nLanguage : English \n\nText #1  \nLanguage : English \n\nText #2 \nLanguage : English \n\n &lt;a href=&quot; http://photobucket.com/TheeDaysOfTheCondor_TequilaBob&quot; rel=&quot;nofollow&quot; target=&quot;_NEW&quot;&gt; http://photobucket.com/TheeDaysOfTheCondor_TequilaBob&lt;/a&gt;\n\n","torrent":{"xt":"urn:btih:18fb4d8e909ea30f51778a1e20962d1d60967479","amp;dn":"Three+Days+of+The+Condor+1975+BluRay+1080p+ac3+x264-LoNeWoLf","amp;tr":["udp%3A%2F%2Ftracker.openbittorrent.com%3A80","udp%3A%2F%2Fopen.demonii.com%3A1337","udp%3A%2F%2Ftracker.coppersurfer.tk%3A6969","udp%3A%2F%2Fexodus.desync.com%3A6969"],"infoHash":"18fb4d8e909ea30f51778a1e20962d1d60967479","infoHashBuffer":{"type":"Buffer","data":[24,251,77,142,144,158,163,15,81,119,138,30,32,150,45,29,96,150,116,121]},"announce":[],"urlList":[]}}